<mxfile host="Electron" modified="2024-04-08T16:50:57.644Z" agent="Mozilla/5.0 (Windows NT 10.0; Win64; x64) AppleWebKit/537.36 (KHTML, like Gecko) draw.io/24.1.0 Chrome/120.0.6099.109 Electron/28.1.0 Safari/537.36" etag="ja1auXsZtqD5lhGC8tFJ" version="24.1.0" type="device">
  <diagram name="Página-1" id="QPTxxmjRIzj0UkKKyri8">
    <mxGraphModel dx="2247" dy="830" grid="1" gridSize="10" guides="1" tooltips="1" connect="1" arrows="1" fold="1" page="1" pageScale="1" pageWidth="827" pageHeight="1169" background="#CCE5FF" math="0" shadow="0">
      <root>
        <mxCell id="0" />
        <mxCell id="1" parent="0" />
        <mxCell id="5BfmQ_zMdHdvxGMnyVng-1" value="&lt;font style=&quot;font-size: 16px;&quot; color=&quot;#000000&quot; face=&quot;Comic Sans MS&quot;&gt;&lt;b&gt;24 Hacer un programa que permita ingresar el sueldo de 10 empleados y determine:&lt;br&gt;El sueldo máximo.&lt;br&gt;El sueldo mínimo.&lt;br&gt;El sueldo promedio.&lt;br&gt;Cantidad de sueldos mayores a $50000.&lt;/b&gt;&lt;/font&gt;" style="text;whiteSpace=wrap;html=1;fontFamily=Architects Daughter;fontSource=https%3A%2F%2Ffonts.googleapis.com%2Fcss%3Ffamily%3DArchitects%2BDaughter;" parent="1" vertex="1">
          <mxGeometry x="50" y="10" width="680" height="120" as="geometry" />
        </mxCell>
        <mxCell id="Dhc866MbmIEkIT7V-zG2-180" value="" style="group;aspect=fixed;" vertex="1" connectable="0" parent="1">
          <mxGeometry x="-121" y="160" width="940" height="1370" as="geometry" />
        </mxCell>
        <mxCell id="Dhc866MbmIEkIT7V-zG2-5" value="" style="group;aspect=fixed;" vertex="1" connectable="0" parent="Dhc866MbmIEkIT7V-zG2-180">
          <mxGeometry x="485" width="50" height="50" as="geometry" />
        </mxCell>
        <mxCell id="Dhc866MbmIEkIT7V-zG2-1" value="" style="strokeWidth=2;html=1;shape=mxgraph.flowchart.start_2;whiteSpace=wrap;rounded=0;labelBackgroundColor=none;strokeColor=#000000;align=center;verticalAlign=middle;fontFamily=Helvetica;fontSize=12;fontColor=default;fillColor=#d5e8d4;" vertex="1" parent="Dhc866MbmIEkIT7V-zG2-5">
          <mxGeometry width="50" height="50" as="geometry" />
        </mxCell>
        <mxCell id="Dhc866MbmIEkIT7V-zG2-3" value="&lt;font color=&quot;#000000&quot; size=&quot;1&quot; face=&quot;Comic Sans MS&quot;&gt;&lt;b style=&quot;font-size: 20px;&quot;&gt;I&lt;/b&gt;&lt;/font&gt;" style="text;strokeColor=none;align=center;fillColor=none;html=1;verticalAlign=middle;whiteSpace=wrap;rounded=0;fontFamily=Architects Daughter;fontSource=https%3A%2F%2Ffonts.googleapis.com%2Fcss%3Ffamily%3DArchitects%2BDaughter;" vertex="1" parent="Dhc866MbmIEkIT7V-zG2-5">
          <mxGeometry x="10" y="10" width="30" height="30" as="geometry" />
        </mxCell>
        <mxCell id="Dhc866MbmIEkIT7V-zG2-6" value="" style="group;aspect=fixed;" vertex="1" connectable="0" parent="Dhc866MbmIEkIT7V-zG2-180">
          <mxGeometry x="476" y="1320" width="50" height="50" as="geometry" />
        </mxCell>
        <mxCell id="Dhc866MbmIEkIT7V-zG2-2" value="" style="strokeWidth=2;html=1;shape=mxgraph.flowchart.start_2;whiteSpace=wrap;rounded=0;labelBackgroundColor=none;strokeColor=#000000;align=center;verticalAlign=middle;fontFamily=Helvetica;fontSize=12;fontColor=default;fillColor=#d5e8d4;" vertex="1" parent="Dhc866MbmIEkIT7V-zG2-6">
          <mxGeometry width="50" height="50" as="geometry" />
        </mxCell>
        <mxCell id="Dhc866MbmIEkIT7V-zG2-4" value="&lt;font color=&quot;#000000&quot; size=&quot;1&quot; face=&quot;Comic Sans MS&quot;&gt;&lt;b style=&quot;font-size: 20px;&quot;&gt;F&lt;/b&gt;&lt;/font&gt;" style="text;strokeColor=none;align=center;fillColor=none;html=1;verticalAlign=middle;whiteSpace=wrap;rounded=0;fontFamily=Architects Daughter;fontSource=https://fonts.googleapis.com/css?family=Architects+Daughter;" vertex="1" parent="Dhc866MbmIEkIT7V-zG2-6">
          <mxGeometry x="5" y="10" width="40" height="30" as="geometry" />
        </mxCell>
        <mxCell id="Dhc866MbmIEkIT7V-zG2-179" value="" style="line;strokeWidth=2;direction=south;html=1;hachureGap=4;fontFamily=Architects Daughter;fontSource=https://fonts.googleapis.com/css?family=Architects+Daughter;strokeColor=#000000;container=0;" vertex="1" parent="Dhc866MbmIEkIT7V-zG2-6">
          <mxGeometry x="20" y="-30" width="10" height="30" as="geometry" />
        </mxCell>
        <mxCell id="Dhc866MbmIEkIT7V-zG2-18" value="" style="group;aspect=fixed;" vertex="1" connectable="0" parent="Dhc866MbmIEkIT7V-zG2-180">
          <mxGeometry x="386" y="1151" width="230" height="40" as="geometry" />
        </mxCell>
        <mxCell id="Dhc866MbmIEkIT7V-zG2-12" value="" style="rounded=0;whiteSpace=wrap;html=1;labelBackgroundColor=none;strokeColor=#0f100e;strokeWidth=2;align=center;verticalAlign=middle;fontFamily=Helvetica;fontSize=12;fontColor=default;fillColor=#d5e8d4;" vertex="1" parent="Dhc866MbmIEkIT7V-zG2-18">
          <mxGeometry width="230" height="40" as="geometry" />
        </mxCell>
        <mxCell id="Dhc866MbmIEkIT7V-zG2-17" value="&lt;font size=&quot;1&quot; face=&quot;Comic Sans MS&quot; color=&quot;#000000&quot;&gt;&lt;b style=&quot;font-size: 15px;&quot;&gt;promedio = acu_sueldo / 10&lt;/b&gt;&lt;/font&gt;" style="text;strokeColor=none;align=center;fillColor=none;html=1;verticalAlign=middle;whiteSpace=wrap;rounded=0;fontFamily=Architects Daughter;fontSource=https://fonts.googleapis.com/css?family=Architects+Daughter;container=0;" vertex="1" parent="Dhc866MbmIEkIT7V-zG2-18">
          <mxGeometry x="5" y="5" width="220" height="30" as="geometry" />
        </mxCell>
        <mxCell id="Dhc866MbmIEkIT7V-zG2-172" value="" style="group;aspect=fixed;" vertex="1" connectable="0" parent="Dhc866MbmIEkIT7V-zG2-180">
          <mxGeometry y="91" width="940" height="1010" as="geometry" />
        </mxCell>
        <mxCell id="Dhc866MbmIEkIT7V-zG2-103" value="" style="whiteSpace=wrap;html=1;rounded=0;labelBackgroundColor=none;strokeColor=#000000;strokeWidth=2;align=center;verticalAlign=middle;fontFamily=Helvetica;fontSize=12;fontColor=default;fillColor=#d5e8d4;" vertex="1" parent="Dhc866MbmIEkIT7V-zG2-172">
          <mxGeometry x="100" width="840" height="1010" as="geometry" />
        </mxCell>
        <mxCell id="Dhc866MbmIEkIT7V-zG2-115" value="" style="group;aspect=fixed;" vertex="1" connectable="0" parent="Dhc866MbmIEkIT7V-zG2-172">
          <mxGeometry y="51" width="198" height="198" as="geometry" />
        </mxCell>
        <mxCell id="Dhc866MbmIEkIT7V-zG2-105" value="" style="ellipse;whiteSpace=wrap;html=1;aspect=fixed;rounded=0;labelBackgroundColor=none;strokeColor=#0F140C;strokeWidth=3;align=center;verticalAlign=middle;fontFamily=Helvetica;fontSize=12;fontColor=default;fillColor=#d5e8d4;container=0;" vertex="1" parent="Dhc866MbmIEkIT7V-zG2-115">
          <mxGeometry width="198" height="198" as="geometry" />
        </mxCell>
        <mxCell id="Dhc866MbmIEkIT7V-zG2-106" value="" style="endArrow=none;html=1;rounded=0;strokeColor=#0F140C;fontFamily=Helvetica;fontSize=12;fontColor=default;fillColor=#B2C9AB;strokeWidth=2;" edge="1" parent="Dhc866MbmIEkIT7V-zG2-115">
          <mxGeometry width="50" height="50" relative="1" as="geometry">
            <mxPoint x="190.08" y="55.440000000000055" as="sourcePoint" />
            <mxPoint x="7.920000000000002" y="55.440000000000055" as="targetPoint" />
          </mxGeometry>
        </mxCell>
        <mxCell id="Dhc866MbmIEkIT7V-zG2-107" value="" style="endArrow=none;html=1;rounded=0;strokeColor=#0F140C;fontFamily=Helvetica;fontSize=12;fontColor=default;fillColor=#B2C9AB;exitX=0.264;exitY=0.952;exitDx=0;exitDy=0;exitPerimeter=0;strokeWidth=2;" edge="1" parent="Dhc866MbmIEkIT7V-zG2-115" source="Dhc866MbmIEkIT7V-zG2-105">
          <mxGeometry width="50" height="50" relative="1" as="geometry">
            <mxPoint x="47.52" y="118.79999999999995" as="sourcePoint" />
            <mxPoint x="55.43999999999999" y="55.440000000000055" as="targetPoint" />
          </mxGeometry>
        </mxCell>
        <mxCell id="Dhc866MbmIEkIT7V-zG2-108" value="" style="endArrow=none;html=1;rounded=0;strokeColor=#0F140C;fontFamily=Helvetica;fontSize=12;fontColor=default;fillColor=#B2C9AB;exitX=0.728;exitY=0.948;exitDx=0;exitDy=0;exitPerimeter=0;strokeWidth=2;" edge="1" parent="Dhc866MbmIEkIT7V-zG2-115" source="Dhc866MbmIEkIT7V-zG2-105">
          <mxGeometry width="50" height="50" relative="1" as="geometry">
            <mxPoint x="118.80000000000001" y="134.6400000000001" as="sourcePoint" />
            <mxPoint x="144.14399999999998" y="55.440000000000055" as="targetPoint" />
          </mxGeometry>
        </mxCell>
        <mxCell id="Dhc866MbmIEkIT7V-zG2-110" value="&lt;font face=&quot;Comic Sans MS&quot; color=&quot;#000000&quot;&gt;&lt;span style=&quot;font-size: 15px;&quot;&gt;&lt;b&gt;x = 0&lt;/b&gt;&lt;/span&gt;&lt;/font&gt;" style="text;strokeColor=none;align=center;fillColor=none;html=1;verticalAlign=middle;whiteSpace=wrap;rounded=0;fontFamily=Architects Daughter;fontSource=https://fonts.googleapis.com/css?family=Architects+Daughter;container=0;" vertex="1" parent="Dhc866MbmIEkIT7V-zG2-115">
          <mxGeometry x="2" y="97" width="50" height="20" as="geometry" />
        </mxCell>
        <mxCell id="Dhc866MbmIEkIT7V-zG2-111" value="&lt;font size=&quot;1&quot; face=&quot;Comic Sans MS&quot; color=&quot;#000000&quot;&gt;&lt;b style=&quot;font-size: 15px;&quot;&gt;x &amp;lt; 10&lt;/b&gt;&lt;/font&gt;" style="text;strokeColor=none;align=center;fillColor=none;html=1;verticalAlign=middle;whiteSpace=wrap;rounded=0;fontFamily=Architects Daughter;fontSource=https://fonts.googleapis.com/css?family=Architects+Daughter;container=0;" vertex="1" parent="Dhc866MbmIEkIT7V-zG2-115">
          <mxGeometry x="61" y="96" width="70" height="20" as="geometry" />
        </mxCell>
        <mxCell id="Dhc866MbmIEkIT7V-zG2-112" value="&lt;font size=&quot;1&quot; face=&quot;Comic Sans MS&quot; color=&quot;#000000&quot;&gt;&lt;b style=&quot;font-size: 15px;&quot;&gt;x++&lt;/b&gt;&lt;/font&gt;" style="text;strokeColor=none;align=center;fillColor=none;html=1;verticalAlign=middle;whiteSpace=wrap;rounded=0;fontFamily=Architects Daughter;fontSource=https://fonts.googleapis.com/css?family=Architects+Daughter;container=0;" vertex="1" parent="Dhc866MbmIEkIT7V-zG2-115">
          <mxGeometry x="138" y="95" width="60" height="20" as="geometry" />
        </mxCell>
        <mxCell id="Dhc866MbmIEkIT7V-zG2-114" value="&lt;font size=&quot;1&quot; face=&quot;Comic Sans MS&quot; color=&quot;#000000&quot;&gt;&lt;b style=&quot;font-size: 20px;&quot;&gt;x&lt;/b&gt;&lt;/font&gt;" style="text;strokeColor=none;align=center;fillColor=none;html=1;verticalAlign=middle;whiteSpace=wrap;rounded=0;fontFamily=Architects Daughter;fontSource=https://fonts.googleapis.com/css?family=Architects+Daughter;container=0;" vertex="1" parent="Dhc866MbmIEkIT7V-zG2-115">
          <mxGeometry x="74" y="18" width="50" height="30" as="geometry" />
        </mxCell>
        <mxCell id="Dhc866MbmIEkIT7V-zG2-116" value="" style="group;aspect=fixed;" vertex="1" connectable="0" parent="Dhc866MbmIEkIT7V-zG2-172">
          <mxGeometry x="216" y="78" width="700" height="885" as="geometry" />
        </mxCell>
        <mxCell id="Dhc866MbmIEkIT7V-zG2-117" value="" style="line;strokeWidth=2;direction=south;html=1;hachureGap=4;fontFamily=Architects Daughter;fontSource=https://fonts.googleapis.com/css?family=Architects+Daughter;strokeColor=#000000;container=0;" vertex="1" parent="Dhc866MbmIEkIT7V-zG2-116">
          <mxGeometry x="292.5" y="640" width="10" height="50" as="geometry" />
        </mxCell>
        <mxCell id="Dhc866MbmIEkIT7V-zG2-118" value="" style="line;strokeWidth=2;direction=south;html=1;hachureGap=4;fontFamily=Architects Daughter;fontSource=https://fonts.googleapis.com/css?family=Architects+Daughter;strokeColor=#000000;container=0;" vertex="1" parent="Dhc866MbmIEkIT7V-zG2-116">
          <mxGeometry x="174.5" y="739" width="10" height="61" as="geometry" />
        </mxCell>
        <mxCell id="Dhc866MbmIEkIT7V-zG2-119" value="" style="line;strokeWidth=2;direction=south;html=1;hachureGap=4;fontFamily=Architects Daughter;fontSource=https://fonts.googleapis.com/css?family=Architects+Daughter;strokeColor=#000000;container=0;" vertex="1" parent="Dhc866MbmIEkIT7V-zG2-116">
          <mxGeometry x="173.5" y="830" width="10" height="50" as="geometry" />
        </mxCell>
        <mxCell id="Dhc866MbmIEkIT7V-zG2-120" value="" style="line;strokeWidth=2;direction=south;html=1;hachureGap=4;fontFamily=Architects Daughter;fontSource=https://fonts.googleapis.com/css?family=Architects+Daughter;strokeColor=#000000;container=0;" vertex="1" parent="Dhc866MbmIEkIT7V-zG2-116">
          <mxGeometry x="410.5" y="739" width="10" height="141" as="geometry" />
        </mxCell>
        <mxCell id="Dhc866MbmIEkIT7V-zG2-121" value="" style="line;strokeWidth=2;html=1;perimeter=backbonePerimeter;points=[];outlineConnect=0;hachureGap=4;fontFamily=Architects Daughter;fontSource=https://fonts.googleapis.com/css?family=Architects+Daughter;strokeColor=#000000;container=0;" vertex="1" parent="Dhc866MbmIEkIT7V-zG2-116">
          <mxGeometry x="177.5" y="735" width="60" height="10" as="geometry" />
        </mxCell>
        <mxCell id="Dhc866MbmIEkIT7V-zG2-122" value="" style="line;strokeWidth=2;html=1;perimeter=backbonePerimeter;points=[];outlineConnect=0;hachureGap=4;fontFamily=Architects Daughter;fontSource=https://fonts.googleapis.com/css?family=Architects+Daughter;strokeColor=#000000;container=0;" vertex="1" parent="Dhc866MbmIEkIT7V-zG2-116">
          <mxGeometry x="357.5" y="735" width="60" height="10" as="geometry" />
        </mxCell>
        <mxCell id="Dhc866MbmIEkIT7V-zG2-123" value="" style="line;strokeWidth=2;html=1;perimeter=backbonePerimeter;points=[];outlineConnect=0;hachureGap=4;fontFamily=Architects Daughter;fontSource=https://fonts.googleapis.com/css?family=Architects+Daughter;strokeColor=#000000;container=0;" vertex="1" parent="Dhc866MbmIEkIT7V-zG2-116">
          <mxGeometry x="176.5" y="875" width="241" height="10" as="geometry" />
        </mxCell>
        <mxCell id="Dhc866MbmIEkIT7V-zG2-124" value="&lt;font size=&quot;1&quot; face=&quot;Comic Sans MS&quot; color=&quot;#000000&quot;&gt;&lt;b style=&quot;font-size: 13px;&quot;&gt;V&lt;/b&gt;&lt;/font&gt;" style="text;strokeColor=none;align=center;fillColor=none;html=1;verticalAlign=middle;whiteSpace=wrap;rounded=0;fontFamily=Architects Daughter;fontSource=https://fonts.googleapis.com/css?family=Architects+Daughter;container=0;" vertex="1" parent="Dhc866MbmIEkIT7V-zG2-116">
          <mxGeometry x="165.5" y="722" width="30" height="20" as="geometry" />
        </mxCell>
        <mxCell id="Dhc866MbmIEkIT7V-zG2-125" value="&lt;font size=&quot;1&quot; face=&quot;Comic Sans MS&quot; color=&quot;#000000&quot;&gt;&lt;b style=&quot;font-size: 13px;&quot;&gt;F&lt;/b&gt;&lt;/font&gt;" style="text;strokeColor=none;align=center;fillColor=none;html=1;verticalAlign=middle;whiteSpace=wrap;rounded=0;fontFamily=Architects Daughter;fontSource=https://fonts.googleapis.com/css?family=Architects+Daughter;container=0;" vertex="1" parent="Dhc866MbmIEkIT7V-zG2-116">
          <mxGeometry x="398.5" y="722" width="30" height="20" as="geometry" />
        </mxCell>
        <mxCell id="Dhc866MbmIEkIT7V-zG2-126" value="" style="line;strokeWidth=2;direction=south;html=1;hachureGap=4;fontFamily=Architects Daughter;fontSource=https://fonts.googleapis.com/css?family=Architects+Daughter;strokeColor=#000000;container=0;" vertex="1" parent="Dhc866MbmIEkIT7V-zG2-116">
          <mxGeometry x="683" y="450" width="10" height="150" as="geometry" />
        </mxCell>
        <mxCell id="Dhc866MbmIEkIT7V-zG2-127" value="" style="line;strokeWidth=2;html=1;perimeter=backbonePerimeter;points=[];outlineConnect=0;hachureGap=4;fontFamily=Architects Daughter;fontSource=https://fonts.googleapis.com/css?family=Architects+Daughter;strokeColor=#000000;container=0;" vertex="1" parent="Dhc866MbmIEkIT7V-zG2-116">
          <mxGeometry x="610" y="446" width="81" height="10" as="geometry" />
        </mxCell>
        <mxCell id="Dhc866MbmIEkIT7V-zG2-128" value="" style="shape=trapezoid;perimeter=trapezoidPerimeter;whiteSpace=wrap;html=1;fixedSize=1;rounded=0;labelBackgroundColor=none;strokeColor=#121211;strokeWidth=2;align=center;verticalAlign=middle;fontFamily=Helvetica;fontSize=12;fontColor=default;fillColor=#d5e8d4;direction=west;container=0;" vertex="1" parent="Dhc866MbmIEkIT7V-zG2-116">
          <mxGeometry x="185" width="130" height="40" as="geometry">
            <mxRectangle x="-1020" y="-650" width="50" height="40" as="alternateBounds" />
          </mxGeometry>
        </mxCell>
        <mxCell id="Dhc866MbmIEkIT7V-zG2-129" value="&lt;font face=&quot;Comic Sans MS&quot; color=&quot;#000000&quot;&gt;&lt;span style=&quot;font-size: 16px;&quot;&gt;&lt;b&gt;sueldo&lt;/b&gt;&lt;/span&gt;&lt;/font&gt;" style="text;strokeColor=none;align=center;fillColor=none;html=1;verticalAlign=middle;whiteSpace=wrap;rounded=0;fontFamily=Architects Daughter;fontSource=https://fonts.googleapis.com/css?family=Architects+Daughter;container=0;" vertex="1" parent="Dhc866MbmIEkIT7V-zG2-116">
          <mxGeometry x="214" y="5" width="70" height="30" as="geometry" />
        </mxCell>
        <mxCell id="Dhc866MbmIEkIT7V-zG2-130" value="" style="line;strokeWidth=2;direction=south;html=1;hachureGap=4;fontFamily=Architects Daughter;fontSource=https://fonts.googleapis.com/css?family=Architects+Daughter;strokeColor=#000000;container=0;" vertex="1" parent="Dhc866MbmIEkIT7V-zG2-116">
          <mxGeometry x="245" y="110" width="10" height="40" as="geometry" />
        </mxCell>
        <mxCell id="Dhc866MbmIEkIT7V-zG2-131" value="" style="line;strokeWidth=2;html=1;perimeter=backbonePerimeter;points=[];outlineConnect=0;hachureGap=4;fontFamily=Architects Daughter;fontSource=https://fonts.googleapis.com/css?family=Architects+Daughter;strokeColor=#000000;container=0;" vertex="1" parent="Dhc866MbmIEkIT7V-zG2-116">
          <mxGeometry x="90" y="205" width="100" height="10" as="geometry" />
        </mxCell>
        <mxCell id="Dhc866MbmIEkIT7V-zG2-132" value="" style="line;strokeWidth=2;direction=south;html=1;hachureGap=4;fontFamily=Architects Daughter;fontSource=https://fonts.googleapis.com/css?family=Architects+Daughter;strokeColor=#000000;container=0;" vertex="1" parent="Dhc866MbmIEkIT7V-zG2-116">
          <mxGeometry x="86" y="210" width="10" height="80" as="geometry" />
        </mxCell>
        <mxCell id="Dhc866MbmIEkIT7V-zG2-133" value="" style="line;strokeWidth=2;direction=south;html=1;hachureGap=4;fontFamily=Architects Daughter;fontSource=https://fonts.googleapis.com/css?family=Architects+Daughter;strokeColor=#000000;container=0;" vertex="1" parent="Dhc866MbmIEkIT7V-zG2-116">
          <mxGeometry x="87" y="340" width="10" height="300" as="geometry" />
        </mxCell>
        <mxCell id="Dhc866MbmIEkIT7V-zG2-134" value="" style="line;strokeWidth=2;html=1;perimeter=backbonePerimeter;points=[];outlineConnect=0;hachureGap=4;fontFamily=Architects Daughter;fontSource=https://fonts.googleapis.com/css?family=Architects+Daughter;strokeColor=#000000;container=0;" vertex="1" parent="Dhc866MbmIEkIT7V-zG2-116">
          <mxGeometry x="310" y="205" width="80" height="10" as="geometry" />
        </mxCell>
        <mxCell id="Dhc866MbmIEkIT7V-zG2-135" value="" style="line;strokeWidth=2;direction=south;html=1;hachureGap=4;fontFamily=Architects Daughter;fontSource=https://fonts.googleapis.com/css?family=Architects+Daughter;strokeColor=#000000;container=0;" vertex="1" parent="Dhc866MbmIEkIT7V-zG2-116">
          <mxGeometry x="385" y="210" width="10" height="50" as="geometry" />
        </mxCell>
        <mxCell id="Dhc866MbmIEkIT7V-zG2-136" value="" style="line;strokeWidth=2;html=1;perimeter=backbonePerimeter;points=[];outlineConnect=0;hachureGap=4;fontFamily=Architects Daughter;fontSource=https://fonts.googleapis.com/css?family=Architects+Daughter;strokeColor=#000000;container=0;" vertex="1" parent="Dhc866MbmIEkIT7V-zG2-116">
          <mxGeometry x="250" y="315" width="80" height="10" as="geometry" />
        </mxCell>
        <mxCell id="Dhc866MbmIEkIT7V-zG2-137" value="" style="line;strokeWidth=2;direction=south;html=1;hachureGap=4;fontFamily=Architects Daughter;fontSource=https://fonts.googleapis.com/css?family=Architects+Daughter;strokeColor=#000000;container=0;" vertex="1" parent="Dhc866MbmIEkIT7V-zG2-116">
          <mxGeometry x="247" y="318" width="10" height="72" as="geometry" />
        </mxCell>
        <mxCell id="Dhc866MbmIEkIT7V-zG2-138" value="" style="line;strokeWidth=2;html=1;perimeter=backbonePerimeter;points=[];outlineConnect=0;hachureGap=4;fontFamily=Architects Daughter;fontSource=https://fonts.googleapis.com/css?family=Architects+Daughter;strokeColor=#000000;container=0;" vertex="1" parent="Dhc866MbmIEkIT7V-zG2-116">
          <mxGeometry x="450" y="316" width="100" height="10" as="geometry" />
        </mxCell>
        <mxCell id="Dhc866MbmIEkIT7V-zG2-139" value="" style="line;strokeWidth=2;direction=south;html=1;hachureGap=4;fontFamily=Architects Daughter;fontSource=https://fonts.googleapis.com/css?family=Architects+Daughter;strokeColor=#000000;container=0;" vertex="1" parent="Dhc866MbmIEkIT7V-zG2-116">
          <mxGeometry x="545" y="319" width="10" height="71" as="geometry" />
        </mxCell>
        <mxCell id="Dhc866MbmIEkIT7V-zG2-140" value="" style="line;strokeWidth=2;html=1;perimeter=backbonePerimeter;points=[];outlineConnect=0;hachureGap=4;fontFamily=Architects Daughter;fontSource=https://fonts.googleapis.com/css?family=Architects+Daughter;strokeColor=#000000;container=0;" vertex="1" parent="Dhc866MbmIEkIT7V-zG2-116">
          <mxGeometry x="410" y="445" width="80" height="10" as="geometry" />
        </mxCell>
        <mxCell id="Dhc866MbmIEkIT7V-zG2-141" value="" style="line;strokeWidth=2;direction=south;html=1;hachureGap=4;fontFamily=Architects Daughter;fontSource=https://fonts.googleapis.com/css?family=Architects+Daughter;strokeColor=#000000;container=0;" vertex="1" parent="Dhc866MbmIEkIT7V-zG2-116">
          <mxGeometry x="407" y="448" width="10" height="72" as="geometry" />
        </mxCell>
        <mxCell id="Dhc866MbmIEkIT7V-zG2-142" value="" style="line;strokeWidth=2;direction=south;html=1;hachureGap=4;fontFamily=Architects Daughter;fontSource=https://fonts.googleapis.com/css?family=Architects+Daughter;strokeColor=#000000;container=0;" vertex="1" parent="Dhc866MbmIEkIT7V-zG2-116">
          <mxGeometry x="408" y="560" width="10" height="40" as="geometry" />
        </mxCell>
        <mxCell id="Dhc866MbmIEkIT7V-zG2-143" value="" style="line;strokeWidth=2;html=1;perimeter=backbonePerimeter;points=[];outlineConnect=0;hachureGap=4;fontFamily=Architects Daughter;fontSource=https://fonts.googleapis.com/css?family=Architects+Daughter;strokeColor=#000000;container=0;" vertex="1" parent="Dhc866MbmIEkIT7V-zG2-116">
          <mxGeometry x="411" y="595" width="279" height="10" as="geometry" />
        </mxCell>
        <mxCell id="Dhc866MbmIEkIT7V-zG2-144" value="" style="line;strokeWidth=2;direction=south;html=1;hachureGap=4;fontFamily=Architects Daughter;fontSource=https://fonts.googleapis.com/css?family=Architects+Daughter;strokeColor=#000000;container=0;" vertex="1" parent="Dhc866MbmIEkIT7V-zG2-116">
          <mxGeometry x="545.5" y="600" width="10" height="40" as="geometry" />
        </mxCell>
        <mxCell id="Dhc866MbmIEkIT7V-zG2-145" value="" style="line;strokeWidth=2;html=1;perimeter=backbonePerimeter;points=[];outlineConnect=0;hachureGap=4;fontFamily=Architects Daughter;fontSource=https://fonts.googleapis.com/css?family=Architects+Daughter;strokeColor=#000000;container=0;" vertex="1" parent="Dhc866MbmIEkIT7V-zG2-116">
          <mxGeometry x="90" y="635" width="461.5" height="10" as="geometry" />
        </mxCell>
        <mxCell id="Dhc866MbmIEkIT7V-zG2-146" value="&lt;font size=&quot;1&quot; face=&quot;Comic Sans MS&quot; color=&quot;#000000&quot;&gt;&lt;b style=&quot;font-size: 13px;&quot;&gt;V&lt;/b&gt;&lt;/font&gt;" style="text;strokeColor=none;align=center;fillColor=none;html=1;verticalAlign=middle;whiteSpace=wrap;rounded=0;fontFamily=Architects Daughter;fontSource=https://fonts.googleapis.com/css?family=Architects+Daughter;container=0;" vertex="1" parent="Dhc866MbmIEkIT7V-zG2-116">
          <mxGeometry x="78" y="191" width="30" height="20" as="geometry" />
        </mxCell>
        <mxCell id="Dhc866MbmIEkIT7V-zG2-147" value="&lt;font size=&quot;1&quot; face=&quot;Comic Sans MS&quot; color=&quot;#000000&quot;&gt;&lt;b style=&quot;font-size: 13px;&quot;&gt;F&lt;/b&gt;&lt;/font&gt;" style="text;strokeColor=none;align=center;fillColor=none;html=1;verticalAlign=middle;whiteSpace=wrap;rounded=0;fontFamily=Architects Daughter;fontSource=https://fonts.googleapis.com/css?family=Architects+Daughter;container=0;" vertex="1" parent="Dhc866MbmIEkIT7V-zG2-116">
          <mxGeometry x="373" y="193" width="30" height="20" as="geometry" />
        </mxCell>
        <mxCell id="Dhc866MbmIEkIT7V-zG2-148" value="&lt;font size=&quot;1&quot; face=&quot;Comic Sans MS&quot; color=&quot;#000000&quot;&gt;&lt;b style=&quot;font-size: 13px;&quot;&gt;V&lt;/b&gt;&lt;/font&gt;" style="text;strokeColor=none;align=center;fillColor=none;html=1;verticalAlign=middle;whiteSpace=wrap;rounded=0;fontFamily=Architects Daughter;fontSource=https://fonts.googleapis.com/css?family=Architects+Daughter;container=0;" vertex="1" parent="Dhc866MbmIEkIT7V-zG2-116">
          <mxGeometry x="239" y="302" width="30" height="20" as="geometry" />
        </mxCell>
        <mxCell id="Dhc866MbmIEkIT7V-zG2-149" value="&lt;font size=&quot;1&quot; face=&quot;Comic Sans MS&quot; color=&quot;#000000&quot;&gt;&lt;b style=&quot;font-size: 13px;&quot;&gt;F&lt;/b&gt;&lt;/font&gt;" style="text;strokeColor=none;align=center;fillColor=none;html=1;verticalAlign=middle;whiteSpace=wrap;rounded=0;fontFamily=Architects Daughter;fontSource=https://fonts.googleapis.com/css?family=Architects+Daughter;container=0;" vertex="1" parent="Dhc866MbmIEkIT7V-zG2-116">
          <mxGeometry x="531.5" y="303" width="30" height="20" as="geometry" />
        </mxCell>
        <mxCell id="Dhc866MbmIEkIT7V-zG2-150" value="&lt;font size=&quot;1&quot; face=&quot;Comic Sans MS&quot; color=&quot;#000000&quot;&gt;&lt;b style=&quot;font-size: 13px;&quot;&gt;V&lt;/b&gt;&lt;/font&gt;" style="text;strokeColor=none;align=center;fillColor=none;html=1;verticalAlign=middle;whiteSpace=wrap;rounded=0;fontFamily=Architects Daughter;fontSource=https://fonts.googleapis.com/css?family=Architects+Daughter;container=0;" vertex="1" parent="Dhc866MbmIEkIT7V-zG2-116">
          <mxGeometry x="399" y="431" width="30" height="20" as="geometry" />
        </mxCell>
        <mxCell id="Dhc866MbmIEkIT7V-zG2-151" value="&lt;font size=&quot;1&quot; face=&quot;Comic Sans MS&quot; color=&quot;#000000&quot;&gt;&lt;b style=&quot;font-size: 13px;&quot;&gt;F&lt;/b&gt;&lt;/font&gt;" style="text;strokeColor=none;align=center;fillColor=none;html=1;verticalAlign=middle;whiteSpace=wrap;rounded=0;fontFamily=Architects Daughter;fontSource=https://fonts.googleapis.com/css?family=Architects+Daughter;container=0;" vertex="1" parent="Dhc866MbmIEkIT7V-zG2-116">
          <mxGeometry x="670" y="433" width="30" height="20" as="geometry" />
        </mxCell>
        <mxCell id="Dhc866MbmIEkIT7V-zG2-152" value="" style="rounded=0;whiteSpace=wrap;html=1;labelBackgroundColor=none;strokeColor=#0f100e;strokeWidth=2;align=center;verticalAlign=middle;fontFamily=Helvetica;fontSize=12;fontColor=default;fillColor=#d5e8d4;container=0;" vertex="1" parent="Dhc866MbmIEkIT7V-zG2-116">
          <mxGeometry x="160" y="70" width="180" height="40" as="geometry" />
        </mxCell>
        <mxCell id="Dhc866MbmIEkIT7V-zG2-153" value="&lt;font face=&quot;Comic Sans MS&quot; color=&quot;#000000&quot;&gt;&lt;span style=&quot;font-size: 16px;&quot;&gt;&lt;b&gt;acu_sueldo += sueldo&lt;/b&gt;&lt;/span&gt;&lt;/font&gt;" style="text;strokeColor=none;align=center;fillColor=none;html=1;verticalAlign=middle;whiteSpace=wrap;rounded=0;fontFamily=Architects Daughter;fontSource=https://fonts.googleapis.com/css?family=Architects+Daughter;container=0;" vertex="1" parent="Dhc866MbmIEkIT7V-zG2-116">
          <mxGeometry x="165" y="80" width="170" height="20" as="geometry" />
        </mxCell>
        <mxCell id="Dhc866MbmIEkIT7V-zG2-154" value="" style="line;strokeWidth=2;direction=south;html=1;hachureGap=4;fontFamily=Architects Daughter;fontSource=https://fonts.googleapis.com/css?family=Architects+Daughter;strokeColor=#000000;container=0;" vertex="1" parent="Dhc866MbmIEkIT7V-zG2-116">
          <mxGeometry x="245" y="40" width="10" height="30" as="geometry" />
        </mxCell>
        <mxCell id="Dhc866MbmIEkIT7V-zG2-155" value="" style="rhombus;whiteSpace=wrap;html=1;rounded=0;labelBackgroundColor=none;strokeColor=#0F140C;strokeWidth=2;align=center;verticalAlign=middle;fontFamily=Helvetica;fontSize=12;fontColor=default;fillColor=#d5e8d4;container=0;" vertex="1" parent="Dhc866MbmIEkIT7V-zG2-116">
          <mxGeometry x="190" y="150" width="120" height="120" as="geometry" />
        </mxCell>
        <mxCell id="Dhc866MbmIEkIT7V-zG2-156" value="&lt;font size=&quot;1&quot; face=&quot;Comic Sans MS&quot; color=&quot;#000000&quot;&gt;&lt;b style=&quot;font-size: 15px;&quot;&gt;x == 0&lt;/b&gt;&lt;/font&gt;" style="text;strokeColor=none;align=center;fillColor=none;html=1;verticalAlign=middle;whiteSpace=wrap;rounded=0;fontFamily=Architects Daughter;fontSource=https://fonts.googleapis.com/css?family=Architects+Daughter;container=0;" vertex="1" parent="Dhc866MbmIEkIT7V-zG2-116">
          <mxGeometry x="210" y="195" width="80" height="30" as="geometry" />
        </mxCell>
        <mxCell id="Dhc866MbmIEkIT7V-zG2-157" value="" style="rhombus;whiteSpace=wrap;html=1;rounded=0;labelBackgroundColor=none;strokeColor=#0F140C;strokeWidth=2;align=center;verticalAlign=middle;fontFamily=Helvetica;fontSize=12;fontColor=default;fillColor=#d5e8d4;container=0;" vertex="1" parent="Dhc866MbmIEkIT7V-zG2-116">
          <mxGeometry x="330" y="260" width="120" height="120" as="geometry" />
        </mxCell>
        <mxCell id="Dhc866MbmIEkIT7V-zG2-158" value="&lt;font style=&quot;font-size: 13px;&quot; face=&quot;Comic Sans MS&quot; color=&quot;#000000&quot;&gt;&lt;b style=&quot;&quot;&gt;sueldo&lt;/b&gt;&lt;/font&gt;&lt;div style=&quot;font-size: 13px;&quot;&gt;&lt;font style=&quot;font-size: 13px;&quot; face=&quot;Comic Sans MS&quot; color=&quot;#000000&quot;&gt;&lt;b&gt;&amp;gt;&lt;/b&gt;&lt;/font&gt;&lt;/div&gt;&lt;div style=&quot;font-size: 13px;&quot;&gt;&lt;font style=&quot;font-size: 13px;&quot; face=&quot;Comic Sans MS&quot; color=&quot;#000000&quot;&gt;&lt;b style=&quot;&quot;&gt;sueldo_maximo&lt;/b&gt;&lt;/font&gt;&lt;/div&gt;" style="text;strokeColor=none;align=center;fillColor=none;html=1;verticalAlign=middle;whiteSpace=wrap;rounded=0;fontFamily=Architects Daughter;fontSource=https://fonts.googleapis.com/css?family=Architects+Daughter;container=0;" vertex="1" parent="Dhc866MbmIEkIT7V-zG2-116">
          <mxGeometry x="332" y="287" width="116" height="50" as="geometry" />
        </mxCell>
        <mxCell id="Dhc866MbmIEkIT7V-zG2-159" value="" style="rounded=0;whiteSpace=wrap;html=1;labelBackgroundColor=none;strokeColor=#0f100e;strokeWidth=2;align=center;verticalAlign=middle;fontFamily=Helvetica;fontSize=12;fontColor=default;fillColor=#d5e8d4;container=0;" vertex="1" parent="Dhc866MbmIEkIT7V-zG2-116">
          <mxGeometry y="290" width="200" height="50" as="geometry" />
        </mxCell>
        <mxCell id="Dhc866MbmIEkIT7V-zG2-160" value="&lt;font size=&quot;1&quot; face=&quot;Comic Sans MS&quot; color=&quot;#000000&quot;&gt;&lt;b style=&quot;font-size: 15px;&quot;&gt;sueldo_maximo = sueldo&lt;/b&gt;&lt;/font&gt;&lt;div&gt;&lt;font size=&quot;1&quot; face=&quot;Comic Sans MS&quot; color=&quot;#000000&quot;&gt;&lt;b style=&quot;font-size: 15px;&quot;&gt;sueldo_minimo = sueldo&lt;/b&gt;&lt;/font&gt;&lt;/div&gt;" style="text;strokeColor=none;align=center;fillColor=none;html=1;verticalAlign=middle;whiteSpace=wrap;rounded=0;fontFamily=Architects Daughter;fontSource=https://fonts.googleapis.com/css?family=Architects+Daughter;container=0;" vertex="1" parent="Dhc866MbmIEkIT7V-zG2-116">
          <mxGeometry x="4" y="290" width="190" height="50" as="geometry" />
        </mxCell>
        <mxCell id="Dhc866MbmIEkIT7V-zG2-161" value="" style="rhombus;whiteSpace=wrap;html=1;rounded=0;labelBackgroundColor=none;strokeColor=#0F140C;strokeWidth=2;align=center;verticalAlign=middle;fontFamily=Helvetica;fontSize=12;fontColor=default;fillColor=#d5e8d4;container=0;" vertex="1" parent="Dhc866MbmIEkIT7V-zG2-116">
          <mxGeometry x="490" y="390" width="120" height="120" as="geometry" />
        </mxCell>
        <mxCell id="Dhc866MbmIEkIT7V-zG2-162" value="&lt;font style=&quot;font-size: 13px;&quot; face=&quot;Comic Sans MS&quot; color=&quot;#000000&quot;&gt;&lt;b style=&quot;&quot;&gt;sueldo&lt;/b&gt;&lt;/font&gt;&lt;div style=&quot;font-size: 13px;&quot;&gt;&lt;font face=&quot;Comic Sans MS&quot; color=&quot;#000000&quot;&gt;&lt;b&gt;&amp;lt;&lt;/b&gt;&lt;/font&gt;&lt;/div&gt;&lt;div style=&quot;font-size: 13px;&quot;&gt;&lt;font style=&quot;font-size: 13px;&quot; face=&quot;Comic Sans MS&quot; color=&quot;#000000&quot;&gt;&lt;b style=&quot;&quot;&gt;sueldo_minimo&lt;/b&gt;&lt;/font&gt;&lt;/div&gt;" style="text;strokeColor=none;align=center;fillColor=none;html=1;verticalAlign=middle;whiteSpace=wrap;rounded=0;fontFamily=Architects Daughter;fontSource=https://fonts.googleapis.com/css?family=Architects+Daughter;container=0;" vertex="1" parent="Dhc866MbmIEkIT7V-zG2-116">
          <mxGeometry x="492" y="419" width="116" height="50" as="geometry" />
        </mxCell>
        <mxCell id="Dhc866MbmIEkIT7V-zG2-163" value="" style="rounded=0;whiteSpace=wrap;html=1;labelBackgroundColor=none;strokeColor=#0f100e;strokeWidth=2;align=center;verticalAlign=middle;fontFamily=Helvetica;fontSize=12;fontColor=default;fillColor=#d5e8d4;container=0;" vertex="1" parent="Dhc866MbmIEkIT7V-zG2-116">
          <mxGeometry x="145" y="390" width="210" height="40" as="geometry" />
        </mxCell>
        <mxCell id="Dhc866MbmIEkIT7V-zG2-164" value="&lt;font size=&quot;1&quot; face=&quot;Comic Sans MS&quot; color=&quot;#000000&quot;&gt;&lt;b style=&quot;font-size: 15px;&quot;&gt;sueldo_maximo = sueldo&lt;/b&gt;&lt;/font&gt;" style="text;strokeColor=none;align=center;fillColor=none;html=1;verticalAlign=middle;whiteSpace=wrap;rounded=0;fontFamily=Architects Daughter;fontSource=https://fonts.googleapis.com/css?family=Architects+Daughter;container=0;" vertex="1" parent="Dhc866MbmIEkIT7V-zG2-116">
          <mxGeometry x="155" y="400" width="190" height="20" as="geometry" />
        </mxCell>
        <mxCell id="Dhc866MbmIEkIT7V-zG2-165" value="" style="rounded=0;whiteSpace=wrap;html=1;labelBackgroundColor=none;strokeColor=#0f100e;strokeWidth=2;align=center;verticalAlign=middle;fontFamily=Helvetica;fontSize=12;fontColor=default;fillColor=#d5e8d4;container=0;" vertex="1" parent="Dhc866MbmIEkIT7V-zG2-116">
          <mxGeometry x="310" y="520" width="210" height="40" as="geometry" />
        </mxCell>
        <mxCell id="Dhc866MbmIEkIT7V-zG2-166" value="&lt;font size=&quot;1&quot; face=&quot;Comic Sans MS&quot; color=&quot;#000000&quot;&gt;&lt;b style=&quot;font-size: 15px;&quot;&gt;sueldo_minimo = sueldo&lt;/b&gt;&lt;/font&gt;" style="text;strokeColor=none;align=center;fillColor=none;html=1;verticalAlign=middle;whiteSpace=wrap;rounded=0;fontFamily=Architects Daughter;fontSource=https://fonts.googleapis.com/css?family=Architects+Daughter;container=0;" vertex="1" parent="Dhc866MbmIEkIT7V-zG2-116">
          <mxGeometry x="320" y="530" width="190" height="20" as="geometry" />
        </mxCell>
        <mxCell id="Dhc866MbmIEkIT7V-zG2-167" value="" style="rhombus;whiteSpace=wrap;html=1;rounded=0;labelBackgroundColor=none;strokeColor=#0F140C;strokeWidth=2;align=center;verticalAlign=middle;fontFamily=Helvetica;fontSize=12;fontColor=default;fillColor=#d5e8d4;container=0;" vertex="1" parent="Dhc866MbmIEkIT7V-zG2-116">
          <mxGeometry x="237.5" y="680" width="120" height="120" as="geometry" />
        </mxCell>
        <mxCell id="Dhc866MbmIEkIT7V-zG2-168" value="&lt;font style=&quot;font-size: 13px;&quot; face=&quot;Comic Sans MS&quot; color=&quot;#000000&quot;&gt;&lt;b style=&quot;&quot;&gt;sueldo&lt;/b&gt;&lt;/font&gt;&lt;div style=&quot;font-size: 13px;&quot;&gt;&lt;font face=&quot;Comic Sans MS&quot; color=&quot;#000000&quot;&gt;&lt;b&gt;&amp;gt;&lt;/b&gt;&lt;/font&gt;&lt;/div&gt;&lt;div style=&quot;font-size: 13px;&quot;&gt;&lt;font face=&quot;Comic Sans MS&quot; color=&quot;#000000&quot;&gt;&lt;b&gt;50000&lt;/b&gt;&lt;/font&gt;&lt;/div&gt;" style="text;strokeColor=none;align=center;fillColor=none;html=1;verticalAlign=middle;whiteSpace=wrap;rounded=0;fontFamily=Architects Daughter;fontSource=https://fonts.googleapis.com/css?family=Architects+Daughter;container=0;" vertex="1" parent="Dhc866MbmIEkIT7V-zG2-116">
          <mxGeometry x="239.5" y="709" width="116" height="50" as="geometry" />
        </mxCell>
        <mxCell id="Dhc866MbmIEkIT7V-zG2-169" value="" style="rounded=0;whiteSpace=wrap;html=1;labelBackgroundColor=none;strokeColor=#0f100e;strokeWidth=2;align=center;verticalAlign=middle;fontFamily=Helvetica;fontSize=12;fontColor=default;fillColor=#d5e8d4;container=0;" vertex="1" parent="Dhc866MbmIEkIT7V-zG2-116">
          <mxGeometry x="97.5" y="800" width="160" height="38.26" as="geometry" />
        </mxCell>
        <mxCell id="Dhc866MbmIEkIT7V-zG2-170" value="&lt;font size=&quot;1&quot; face=&quot;Comic Sans MS&quot; color=&quot;#000000&quot;&gt;&lt;b style=&quot;font-size: 15px;&quot;&gt;mayor_cin++&lt;/b&gt;&lt;/font&gt;" style="text;strokeColor=none;align=center;fillColor=none;html=1;verticalAlign=middle;whiteSpace=wrap;rounded=0;fontFamily=Architects Daughter;fontSource=https://fonts.googleapis.com/css?family=Architects+Daughter;container=0;" vertex="1" parent="Dhc866MbmIEkIT7V-zG2-116">
          <mxGeometry x="108.14913043478259" y="804.7825" width="138.69565217391306" height="28.694999999999997" as="geometry" />
        </mxCell>
        <mxCell id="Dhc866MbmIEkIT7V-zG2-173" value="" style="line;strokeWidth=2;direction=south;html=1;hachureGap=4;fontFamily=Architects Daughter;fontSource=https://fonts.googleapis.com/css?family=Architects+Daughter;strokeColor=#000000;container=0;" vertex="1" parent="Dhc866MbmIEkIT7V-zG2-180">
          <mxGeometry x="506" y="50" width="10" height="40" as="geometry" />
        </mxCell>
        <mxCell id="Dhc866MbmIEkIT7V-zG2-174" value="" style="line;strokeWidth=2;direction=south;html=1;hachureGap=4;fontFamily=Architects Daughter;fontSource=https://fonts.googleapis.com/css?family=Architects+Daughter;strokeColor=#000000;container=0;" vertex="1" parent="Dhc866MbmIEkIT7V-zG2-180">
          <mxGeometry x="496" y="1101" width="10" height="50" as="geometry" />
        </mxCell>
        <mxCell id="Dhc866MbmIEkIT7V-zG2-177" value="" style="group;aspect=fixed;" vertex="1" connectable="0" parent="Dhc866MbmIEkIT7V-zG2-180">
          <mxGeometry x="341" y="1230" width="320" height="70" as="geometry" />
        </mxCell>
        <mxCell id="Dhc866MbmIEkIT7V-zG2-175" value="" style="shape=trapezoid;perimeter=trapezoidPerimeter;whiteSpace=wrap;html=1;fixedSize=1;rounded=0;labelBackgroundColor=none;strokeColor=#0F140C;strokeWidth=2;align=center;verticalAlign=middle;fontFamily=Helvetica;fontSize=12;fontColor=default;fillColor=#d5e8d4;" vertex="1" parent="Dhc866MbmIEkIT7V-zG2-177">
          <mxGeometry y="10" width="320" height="50" as="geometry" />
        </mxCell>
        <mxCell id="Dhc866MbmIEkIT7V-zG2-176" value="&lt;font style=&quot;font-size: 16px;&quot; face=&quot;Comic Sans MS&quot; color=&quot;#000000&quot;&gt;&lt;b style=&quot;&quot;&gt;sueldo_maximo, sueldo_minimo,&lt;/b&gt;&lt;/font&gt;&lt;div style=&quot;font-size: 16px;&quot;&gt;&lt;font style=&quot;font-size: 16px;&quot; face=&quot;Comic Sans MS&quot; color=&quot;#000000&quot;&gt;&lt;b style=&quot;&quot;&gt;promedio, mayor_cin&lt;/b&gt;&lt;/font&gt;&lt;/div&gt;" style="text;strokeColor=none;align=center;fillColor=none;html=1;verticalAlign=middle;whiteSpace=wrap;rounded=0;fontFamily=Architects Daughter;fontSource=https://fonts.googleapis.com/css?family=Architects+Daughter;container=0;" vertex="1" parent="Dhc866MbmIEkIT7V-zG2-177">
          <mxGeometry x="35" width="250" height="70" as="geometry" />
        </mxCell>
        <mxCell id="Dhc866MbmIEkIT7V-zG2-178" value="" style="line;strokeWidth=2;direction=south;html=1;hachureGap=4;fontFamily=Architects Daughter;fontSource=https://fonts.googleapis.com/css?family=Architects+Daughter;strokeColor=#000000;container=0;" vertex="1" parent="Dhc866MbmIEkIT7V-zG2-180">
          <mxGeometry x="496" y="1191" width="10" height="50" as="geometry" />
        </mxCell>
      </root>
    </mxGraphModel>
  </diagram>
</mxfile>
